<?xml version="1.0"?><svg width="960" height="1280" xmlns="http://www.w3.org/2000/svg">
 <title>BUS STOP SIGN</title>
 <metadata id="metadata18081">image/svg+xmlPublic Domainclker.comMohamed Ibrahimmap symbolsmap symbolsimage/svg+xmlMap SymbolsMohamed IbrahimPublic Domain Licenseclker.commap symbols</metadata>
 <g>
  <title>Layer 1</title>
  <path d="m300.152405,2.22501c-25.866028,0 -46.903015,21.03698 -46.903015,46.903992l0,359.63998c0,25.817993 21.036987,46.808044 46.903015,46.808044l359.640015,0c25.81897,0 46.807983,-20.990051 46.807983,-46.808044l0,-359.63998c0,-25.867012 -20.989014,-46.903992 -46.807983,-46.903992l-359.640015,0z" id="path6760" fill-rule="nonzero" fill="#ffffff"/>
  <path d="m828.755737,1052.093018c60.466064,0 109.430237,-48.872864 109.430237,-109.337219l0,-697.570343c0,-60.466202 -48.964172,-109.523468 -109.430237,-109.523468l-697.570496,0c-60.464233,0 -109.523426,49.057266 -109.523426,109.523468l0,697.570343c0,60.464355 49.059193,109.337219 109.523426,109.337219l697.570496,0z" id="path6762" fill-rule="nonzero" fill="#00007f"/>
  <path d="m720.57373,262.083527c-7.227295,-35.954193 -30.209534,-50.31572 -64.772156,-64.679199c-34.564514,-14.456451 -115.462036,-31.599182 -175.786224,-31.599182c-60.419128,0 -141.314636,17.142731 -175.879181,31.599182c-34.564575,14.36348 -57.544952,28.725006 -64.7742,64.679199l-25.945679,199.415833l0,274.752777l44.757202,0l0,43.090454c0,52.447632 76.912628,52.447632 76.912628,0l0,-43.090454l289.949646,0l0,43.090454c0,52.447632 76.726563,52.447632 76.726563,0l0,-43.090454l44.666077,0l0,-274.752777l-25.854675,-199.415833zm-361.208679,-52.263535l241.114685,0c23.722595,0 23.722595,44.943222 0,44.943222l-241.114685,0c-23.629669,0 -23.629669,-44.943222 0,-44.943222m-62.828308,443.960953c-22.331055,0 -40.495209,-18.071045 -40.495209,-40.588257c0,-22.331055 18.164154,-40.495239 40.495209,-40.495239c22.426086,0 40.588287,18.164185 40.588287,40.495239c0,22.517212 -18.162201,40.588257 -40.588287,40.588257m366.862305,0c-22.424133,0 -40.679382,-18.071045 -40.679382,-40.588257c0,-22.331055 18.255249,-40.495239 40.679382,-40.495239c22.240051,0 40.402161,18.164185 40.402161,40.495239c0,22.517212 -18.162109,40.588257 -40.402161,40.588257m15.939148,-171.245148l-398.182373,0c-11.584229,0 -21.220581,-9.638275 -21.220581,-21.220551c0,-1.945892 0.370148,-3.800659 0.740356,-5.560455l21.220581,-157.253845c1.759766,-9.822449 10.471649,-17.419891 20.757324,-17.419891l355.093933,0c10.285645,0 18.995667,7.597443 20.848511,17.419891l21.127441,157.253845c0.372131,1.759796 0.742249,3.614563 0.742249,5.560455c0,11.582275 -9.545227,21.220551 -21.127441,21.220551" id="path6764" fill-rule="nonzero" fill="#ffffff"/>
  <text fill="#000000" stroke-width="0" x="342" y="448" id="svg_1" font-size="24" font-family="serif" text-anchor="middle" xml:space="preserve"/>
  <text fill="#ffffff" stroke-width="0" x="196.601" y="520.783" id="svg_2" font-size="24" font-family="Sans-serif" text-anchor="middle" xml:space="preserve" transform="matrix(7.21769, 0, 0, 7.21769, -943.045, -2770.25)">BUS STOP</text>
 </g>
</svg>